<?xml version="1.0" encoding="UTF-8"?>
<svg id="Layer_1" xmlns="http://www.w3.org/2000/svg" viewBox="0 0 3128.68 720">
  <defs>
    <style>
      .cls-1 {
        fill: #fff;
      }

      .cls-2 {
        fill: #7bb542;
      }

      .cls-3 {
        fill: #44652f;
      }
    </style>
  </defs>
  <g>
    <path class="cls-2" d="M298.03,255.56v-89.61c0-75.51-61.54-91.12-131.65-91.12s-129.27,15.62-129.27,93.5v145.61c0,57.66,42.83,70.11,101.99,70.11h28.86c28.79,0,36.56,14.04,36.56,38.15v112.93c0,21.02-9.36,36.64-36.56,36.64s-38.22-15.62-38.22-36.64v-80.18H37.11v84.86c0,75.58,63.05,90.33,130.86,90.33s130.07-14.76,130.07-92.64v-153.46c0-48.3-42.11-64.64-102.86-64.64h-28.79c-25.7-.79-36.64-11.66-36.64-38.15v-110.63c0-21.02,9.36-36.57,36.64-36.57s38.94,15.55,38.94,36.57v84.93h92.71Z"/>
    <path class="cls-2" d="M390.67,80.29v545.17h92.71V80.29h-92.71Z"/>
    <path class="cls-2" d="M847.08,80.29l-72.48,384.01-77.09-384.01h-110.63v545.17h73.99V246.99l73.99,378.46h67.01l73.99-378.46v378.46h84.86V80.29h-113.65Z"/>
    <path class="cls-3" d="M1019.91,80.29v37.36h81.05v507.81h49.02V117.65h81.77v-37.36h-211.83Z"/>
    <path class="cls-3" d="M1445.95,80.29v456.42c0,35.85-14.83,56.07-56.07,56.07s-54.56-20.23-54.56-56.07V80.29h-49.02v456.42c0,77.88,45.92,91.92,103.58,91.92s105.88-14.04,105.88-91.92V80.29h-49.81Z"/>
    <path class="cls-3" d="M1748.91,402.76c36.57-11.73,54.49-40.52,54.49-97.39v-131.58c0-77.88-45.92-93.5-104.37-93.5h-101.99v545.17h49.02v-216.51h55.35l77.09,216.51h50.6l-80.18-222.7ZM1699.03,373.17h-52.98V117.65h52.98c41.32,0,55.28,20.3,55.28,56.14v143.31c0,35.77-13.96,56.07-55.28,56.07Z"/>
    <path class="cls-3" d="M2058.85,117.65v-37.36h-159.65v545.17h49.02v-262.43h110.63v-36.64h-110.63V117.65h110.63Z"/>
  </g>
  <g>
    <path class="cls-2" d="M2542.91,503.38c0,11.88-1.44,23.47-4.25,34.48-2.95,12.02-7.49,23.47-13.46,34.05-24.11,43.69-70.61,73.27-124.09,73.27-78.31,0-141.73-63.49-141.73-141.8,0-1.15,0-2.3.07-3.38.07-4.03.36-8.06.79-11.95,7.63-71.12,67.73-126.39,140.86-126.39,78.31,0,141.8,63.41,141.8,141.73Z"/>
    <g>
      <path class="cls-1" d="M2348.42,532.89c-.94,1.58-2.23,3.6-3.89,5.83-7.63,10.44-22.17,25.7-37.64,25.7-4.82,0-7.13-2.74-7.13-7.34,0-6.84,6.84-29.73,15.76-57.08h29.73v-11.95h-25.62c9.86-29.66,21.52-62.84,29.73-86.81h-23.97c-10.29,32.25-20.15,61.69-28.36,86.81h-36.78c-.43,3.89-.72,7.92-.79,11.95h33.69c-9.36,29.66-15.55,51.39-15.55,60.97,0,14.68,9.57,22.39,24.26,22.39,11.16,0,21.88-3.81,31.96-11.3,9.86-7.34,19.15-18.14,27.64-32.32l-13.03-6.84Z"/>
      <path class="cls-1" d="M2454.44,532.89c-.14.22-.29.5-.43.72-8.2,13.6-20.73,30.81-30.66,30.81-9.14,0-7.99-11.23,5.25-44.34,7.77-20.37,2.09-33.61-14.83-33.61-14.18,0-27.64,11.88-40.89,30.66l7.06-20.15,33.61-95.73h-24.69l-44.34,137.48-10.72,33.33-3.45,10.65h23.32c6.19-17.63,12.31-32.46,21.23-46.86,13.96-22.6,24.69-34.26,31.31-34.26,4.32,0,2.95,7.05-6.19,31.74-11.88,31.53-7.27,50.03,13.97,50.03,13.17,0,26.92-8.64,39.59-23.68,4.89-5.76,9.57-12.45,14.11-19.94l-13.24-6.84Z"/>
      <path class="cls-1" d="M2493.74,564.42c-9.14,0-14.9-4.1-16.7-13.24,10.73-1.37,22.89-5.54,34.26-15.55,8.49-7.56,13.24-17.85,13.24-26.78,0-13.46-9.14-21.45-24.4-21.45-17.92,0-40.09,17.35-46.14,46.21-1.08,4.89-1.66,10.15-1.66,15.69,0,3.74.43,7.2,1.22,10.36,3.67,15.12,15.98,23.68,34.91,23.68,12.38,0,24.69-3.24,36.71-11.44,5.97-10.58,10.51-22.03,13.46-34.05-12.81,18.07-30.23,26.56-44.91,26.56ZM2502.67,500c3.82,0,6.12,2.52,6.41,6.12,0,5.47-3.24,12.6-9.14,18.5-6.19,6.19-14.9,10.58-22.67,12.16,2.74-17.13,13.46-36.78,25.41-36.78Z"/>
    </g>
    <g>
      <path class="cls-3" d="M2299.44,289.69c0-3.71.67-7.77,1.69-12.49l10.13-36.82h40.19l-9.45,34.79c-.68,2.03-1.02,4.06-1.02,5.74,0,6.08,4.06,10.14,13.51,10.14,11.82,0,17.57-6.76,20.27-15.88l12.84-48.97c.67-2.71,1.35-5.07,1.35-7.09,0-6.08-3.71-9.46-12.84-9.46h-12.15c-21.95,0-37.83-4.05-37.83-20.6,0-2.7.34-6.07,1.36-9.79l16.88-63.16c9.12-33.77,37.82-40.52,67.21-40.52,26.01,0,48.3,5.06,48.3,27.01,0,3.38-.67,7.43-2.02,12.5l-10.47,38.84h-40.19l9.79-36.81c.67-2.02,1.01-4.05,1.01-5.74,0-6.08-4.05-10.14-13.51-10.14-11.82,0-17.9,6.76-20.27,15.87l-12.49,47.96c-1.01,2.7-1.35,4.73-1.35,6.76,0,6.76,4.39,9.79,12.83,9.79h12.5c22.96,0,37.82,5.41,37.82,20.27,0,2.36-.34,5.07-1.01,7.77l-17.56,66.53c-9.12,33.78-37.15,40.19-67.55,40.19-24.99,0-47.95-5.07-47.95-26.68Z"/>
      <path class="cls-3" d="M2488.9,144.13h37.49l-45.6,170.22h-37.49l45.59-170.22ZM2494.31,111.38c0-15.54,15.2-29.04,29.72-29.04,10.81,0,17.57,7.09,17.57,16.88,0,15.2-15.2,29.04-29.72,29.04-10.47,0-17.57-7.43-17.57-16.88Z"/>
      <path class="cls-3" d="M2724.3,163.72c0,4.73-.67,10.13-2.36,16.88l-35.8,133.74h-37.49l35.12-131.72c1.01-3.04,1.35-5.74,1.35-8.1,0-5.4-2.7-8.1-10.13-8.1-10.81,0-15.2,6.76-17.9,16.55l-35.12,131.38h-37.15l35.12-131.72c1.01-3.04,1.69-5.74,1.69-8.1,0-5.4-3.04-8.1-10.47-8.1-10.47,0-14.86,6.08-17.57,15.2l-35.46,132.73h-37.49l45.6-170.22h32.08l-.34,12.5c9.12-9.45,20.27-15.53,32.76-15.53,17.22,0,27.35,5.4,29.38,17.22,9.45-10.47,20.93-17.22,34.44-17.22,17.57,0,29.72,4.72,29.72,22.63Z"/>
      <path class="cls-3" d="M2864.46,165.07c0,4.73-.67,10.47-2.7,17.56l-25.33,94.91c-8.44,32.08-27.69,39.17-49.64,39.17-10.14,0-17.57-4.73-22.97-12.16l-15.2,57.08h-37.49l58.09-217.83h32.43l-.34,12.5c9.45-9.45,20.6-15.2,33.43-15.2,17.23,0,29.72,5.4,29.72,23.98ZM2825.62,174.53c0-5.06-2.7-8.1-10.81-8.1-10.8,0-15.87,6.76-18.23,16.55l-7.77,29.04-8.1,29.72h.34l-6.76,23.98-2.71,10.81c-.34,2.36-1.01,4.39-1.01,6.07,0,6.08,3.04,9.46,10.81,9.46,11.14,0,15.2-6.08,17.9-16.22l25-92.87c.67-3.04,1.35-6.08,1.35-8.45Z"/>
      <path class="cls-3" d="M2923.57,77.94h37.82l-63.49,236.41h-37.82l63.49-236.41Z"/>
      <path class="cls-3" d="M3082.31,144.13l-107.74,217.5h-34.45l21.61-47.62,5.41-169.88h37.15l-8.78,117.53,53.7-117.53h33.09Z"/>
    </g>
    <g>
      <path class="cls-3" d="M2736.27,415.9c0,4.05-.67,8.78-2.02,14.18l-10.47,38.5c-5.74,21.28-20.27,31.74-35.12,35.8,10.81,3.37,18.92,10.47,18.92,23.98,0,3.72-.34,8.1-2.02,13.17l-11.49,43.23c-8.78,33.78-35.12,40.87-65.52,40.87h-58.76l63.49-236.41h57.75c25.33,0,45.25,5.07,45.25,26.68ZM2668.72,527.34c0-6.08-3.37-10.13-12.15-10.13h-17.57l-21.95,82.4h17.57c11.48,0,17.22-7.09,19.58-16.21l13.51-50.32c.67-2.02,1.01-4.06,1.01-5.74ZM2694.39,425.35c0-5.74-3.04-10.13-11.49-10.13h-16.55l-20.27,75.31h16.55c11.14,0,17.22-7.09,19.58-15.87l11.49-43.23c.34-2.37.67-4.39.67-6.08Z"/>
      <path class="cls-3" d="M2856.17,477.36c0,4.39-.67,9.8-2.37,15.53l-15.2,57.08h-63.83l-9.79,37.15c-.67,2.71-1.35,5.41-1.35,7.43,0,5.07,2.36,8.45,10.47,8.45,11.15,0,14.86-7.09,17.23-15.88l4.05-15.2h37.49l-4.05,14.86c-8.78,33.78-31.41,40.53-61.47,40.53-25.33,0-42.22-4.73-42.22-24.99,0-4.39.68-9.46,2.37-15.54l24.99-93.89c9.12-33.77,31.08-40.52,61.47-40.52,24.99,0,42.22,4.72,42.22,24.99ZM2817.66,485.13c0-5.06-2.36-8.44-10.13-8.44-11.15,0-15.2,7.09-17.57,15.87l-9.12,34.45h26.68l9.12-34.45c.67-2.7,1.01-5.4,1.01-7.43Z"/>
      <path class="cls-3" d="M2856.84,603c0-4.06.67-8.79,2.36-14.86l4.73-17.57h37.49l-4.39,16.21c-1.01,3.04-1.35,5.41-1.35,8.1,0,4.73,2.36,7.77,10.13,7.77,10.8,0,15.2-6.76,17.9-15.88l5.74-21.61c.67-2.7,1.01-4.72,1.01-6.76,0-4.72-2.7-7.43-9.79-7.43h-13.85c-20.27,0-31.07-8.1-31.07-21.28,0-2.7.34-5.4,1.35-8.44l7.77-28.71c9.12-33.77,32.08-40.52,61.13-40.52,23.64,0,43.23,4.72,43.23,24.99,0,4.06-1.02,8.78-2.37,14.18l-4.39,16.88h-37.49l4.06-15.2c.34-2.7,1.01-5.06,1.01-7.43,0-5.06-2.7-8.44-10.47-8.44-10.81,0-14.86,6.76-17.57,15.87l-4.72,18.92c-.68,2.7-1.36,4.73-1.36,6.76,0,4.73,3.04,7.77,10.14,7.77h13.85c20.26,0,30.73,8.44,30.73,22.29,0,2.36-.34,5.07-1.01,8.1l-8.44,30.39c-9.12,33.78-33.1,40.53-61.81,40.53-24.65,0-42.55-4.73-42.55-24.65Z"/>
      <path class="cls-3" d="M3084.81,480.74h-18.24l-38.84,144.89h-37.15l38.5-144.89h-17.9l6.76-25.33h17.9l14.18-52.68h37.49l-14.18,52.68h18.24l-6.76,25.33Z"/>
    </g>
  </g>
  <rect class="cls-3" x="1891.29" y="344.27" width="547.04" height="15.4" transform="translate(1812.84 2516.78) rotate(-90)"/>
</svg>